<?xml version="1.0" encoding="utf-8"?>
<!-- Generator: Adobe Illustrator 19.2.0, SVG Export Plug-In . SVG Version: 6.00 Build 0)  -->
<svg version="1.1" id="Layer_1" xmlns="http://www.w3.org/2000/svg" xmlns:xlink="http://www.w3.org/1999/xlink" x="0px" y="0px"
	 viewBox="0 0 1000 1000" style="enable-background:new 0 0 1000 1000;" xml:space="preserve">
<style type="text/css">
	.st0{display:none;}
	.st1{display:inline;}
	.st2{fill:#FFFFFF;stroke:#000000;stroke-width:2;stroke-miterlimit:10;}
	.st3{fill:none;stroke:#000000;stroke-width:2;stroke-linecap:round;stroke-linejoin:round;stroke-miterlimit:10;}
	.st4{opacity:0.38;fill:#FFFFFF;stroke:#000000;stroke-width:2.2111;stroke-miterlimit:10;enable-background:new    ;}
	.st5{fill:#FFFFFF;stroke:#000000;stroke-width:2.2111;stroke-miterlimit:10;}
</style>
<g id="Layer_1_3_" class="st0">
	<g id="oTNwzM.tif" class="st1">
	</g>
	<g id="AmUt8b.tif" class="st1">
	</g>
</g>
<g id="Layer_10" class="st0">
	<g id="AmUt8b.tif_1_" class="st1">
	</g>
</g>
<g id="sketchOut">
	<path class="st2" d="M47.2,40.2L71.8,33h50l24.6,7.3l20.2,21.5l-71,94.6L27,59.5L47.2,40.2z"/>
</g>
<g id="sketchIn01">
	<path class="st3" d="M146.3,40.2L121.9,52H70.3L47.2,40.2"/>
</g>
<g id="sketchIn02">
	<path class="st3" d="M166.5,61.8L140,85H52.3L27,59.5"/>
</g>
<g id="sketchIn03">
	<path class="st3" d="M95.5,156.3L52.3,85l18-33"/>
</g>
<g id="sketchIn04">
	<path class="st3" d="M121.9,52L140,85l-44.5,71.3"/>
</g>
<g id="framer1">
	<path class="st4" d="M137,147.6l-71,10.9c-5.2,0.8-10-2.8-10.8-7.9L44.4,80.3c-0.8-5.2,2.8-10,7.9-10.8l71-10.9
		c5.2-0.8,10,2.8,10.8,7.9l10.8,70.2C145.7,142,142.1,146.8,137,147.6z"/>
</g>
<g id="framer2">
	<path class="st4" d="M145.6,131.3l-71,10.9c-5.2,0.8-10-2.8-10.8-7.9L53,64c-0.8-5.2,2.8-10,7.9-10.8l71-10.9
		c5.2-0.8,10,2.8,10.8,7.9l10.8,70.2C154.3,125.7,150.8,130.5,145.6,131.3z"/>
</g>
<g id="framer3_x5F_Straight">
	<path class="st5" d="M158.5,113.9l-1.6,0.3c-5.5-1-76.3-30.5-82-34.2l-9-33.4c-0.8-5.2,2.8-10,7.9-10.8l71-10.9
		c5.2-0.8,10,2.8,10.8,7.9l10.8,70.2C167.2,108.3,163.7,113.1,158.5,113.9z"/>
</g>
<g id="framer3d">
	<path class="st5" d="M157.5,114c-6.5,0.6-48.2-18.9-48.2-18.9S80.6,83.6,74.9,80c-5.1-5.6-9-33.5-9-33.5c-0.8-5.2,2.8-10,8.8-10.8
		L144.8,25c5.2-0.8,10.1,2.8,10.9,8l10.7,70C167.2,108.2,164,113.4,157.5,114z"/>
</g>
<g id="framer4">
	<path class="st5" d="M158.5,113.9c-11.9,0.1-23.3-11.1-46.2-35.3c-6.1-6.5-11-17.5-20.2-16.3c-9.6,1.2-15.9,49.4-26.1-15.7
		c-0.9-5.8,2.8-10,7.9-10.8l71-10.9c5.2-0.8,10,2.8,10.8,7.9l10.8,70.2C167.2,108.3,163.7,113.1,158.5,113.9z"/>
</g>
</svg>
