<?xml version="1.0" encoding="utf-8"?>
<!-- Generator: Adobe Illustrator 19.1.0, SVG Export Plug-In . SVG Version: 6.00 Build 0)  -->
<svg version="1.1" id="Layer_1" xmlns="http://www.w3.org/2000/svg" xmlns:xlink="http://www.w3.org/1999/xlink" x="0px" y="0px"
	 viewBox="0 0 1000 1000" style="enable-background:new 0 0 1000 1000;" xml:space="preserve">
<style type="text/css">
	.st0{display:none;}
	
		.st1{display:inline;fill:none;stroke:#000000;stroke-width:1.4247;stroke-linecap:round;stroke-linejoin:round;stroke-miterlimit:10;}
	.st2{fill:none;stroke:#000000;stroke-width:1.4247;stroke-linecap:round;stroke-linejoin:round;stroke-miterlimit:10;}
</style>
<g id="Sketch" class="st0">
	<path class="st1" d="M45,4h45.9l22.5,9.2l18.5,21l-63.8,84.7L4,33l18.5-20.1L45,4z M44.6,23.8L27.9,53.2l40.1,65.7l40.7-65
		L92.1,23.8 M22.5,12.9l22.1,10.8l47.4,0l21.4-10.5 M4.3,33.3l23.6,19.8l80.6,0.9l23.4-19.8"/>
</g>
<g id="framerFull" class="st0">
	<path class="st1" d="M96.6,98.6l0.5,3.5c0.8,4.9-2.5,9.5-7.4,10.4l-59.3,10.1c-4.9,0.8-9.5-2.5-10.4-7.4L10,56
		c-0.8-4.9,2.5-9.5,7.4-10.4l1.9-0.3 M33.6,47.4c0.7,4,1.3,6.8,4,6.5c2.9-0.3,5.4-6.2,8.2-11.4c5.3-9.9,11-3.5,11.6-2.9
		c6.2,6.2,10.7,10.8,22.4,22.7C85.3,67.8,98.5,85.5,110,82c2.4-0.9,9.4-2.3,7.6-9.9l-10.1-59.3c-0.8-4.9-5.5-8.2-10.4-7.4L37.8,15.6
		c-1.4,0.3-4.1,1.2-5.8,3.7c-1.4,2-1.9,4.1-1.5,6.7C31.4,33.1,32.1,39,33.6,47.4z M30.6,30.2l-4.7,0.8c-4.9,0.8-8.2,5.5-7.4,10.4
		l10.1,59.3c0.8,4.9,5.5,8.2,10.4,7.4l59.3-10.1c4.9-0.8,8.2-5.5,7.4-10.4l-0.9-5 M35.8,53.5l63.1,26.6"/>
</g>
<g id="outlineFramer">
	<path class="st2" d="M105.3,82.5c1.8,0.4,2.9,0.1,4.7-0.5c2.4-0.9,9.4-2.3,7.6-9.9l-10.1-59.3c-0.8-4.9-5.5-8.2-10.4-7.4L37.8,15.6
		c-1.4,0.3-4.1,1.2-5.8,3.7c-1.4,2-1.9,4.1-1.5,6.7c0.2,1.4,0.3,2.7,0.5,4l-5.1,0.9c-4.9,0.8-8.2,5.5-7.4,10.4l0.7,4l-1.9,0.3
		C12.5,46.5,9.2,51.1,10,56l10.1,59.3c0.8,4.9,5.5,8.2,10.4,7.4l59.3-10.1c4.9-0.8,8.2-5.5,7.4-10.4l-0.5-3.5l-0.2-0.5l1.9-0.3
		c4.9-0.8,8.2-5.5,7.4-10.4l-0.9-5L105.3,82.5z"/>
</g>
</svg>
