<?xml version="1.0" encoding="utf-8"?>
<!-- Generator: Adobe Illustrator 19.1.0, SVG Export Plug-In . SVG Version: 6.00 Build 0)  -->
<svg version="1.1" xmlns="http://www.w3.org/2000/svg" xmlns:xlink="http://www.w3.org/1999/xlink" x="0px" y="0px"
	 viewBox="0 0 1000 1000" style="enable-background:new 0 0 1000 1000;" xml:space="preserve">
<style type="text/css">
	.st0{fill:none;stroke:#000000;stroke-width:5;stroke-linecap:round;stroke-linejoin:round;stroke-miterlimit:10;}
</style>
<g id="Layer_2">
</g>
<g id="Layer_3">
	<path class="st0" d="M220,287.5h161l79,32.2l65,73.6L301,690.7L76,389.3l65-70.4L220,287.5z M220,287.5 M218.5,356.9L160,460
		l140.8,230.6l143-228l-58.7-105.7 M381.7,287.7 M141,318.9l77.5,38l166.3-0.1l75.2-37 M77,390.4l83,69.6l283,3l82-69.6"/>
</g>
<g id="Layer_7">
</g>
<g id="Layer_4">
</g>
<g id="Layer_6">
</g>
<g id="Layer_5">
	<path class="st0" d="M885.3,619.4l1.9,12.4c2.9,17.2-8.6,33.5-25.8,36.4l-208,35.6c-17.2,2.9-33.5-8.6-36.4-25.8l-35.6-208
		c-2.9-17.2,8.6-33.5,25.8-36.4l6.6-1.1 M664.3,439.9c2.5,14.2,4.6,23.9,14.2,22.8c10.1-1.1,19-21.7,28.8-40.1
		c18.7-34.8,38.7-12.2,40.8-10.1c21.7,21.7,37.5,37.8,78.7,79.8c18.8,19.2,65.2,81.3,105.6,68.9c8.3-3,33-7.9,26.5-34.9l-35.6-208
		c-2.9-17.2-19.3-28.7-36.4-25.8l-208,35.6c-4.9,1.2-14.4,4.3-20.4,12.9c-4.9,7-6.6,14.5-5.3,23.6
		C656.4,389.8,659.1,410.4,664.3,439.9z M653.8,379.3l-16.6,2.7c-17.2,2.9-28.7,19.3-25.8,36.4l35.6,208
		c2.9,17.2,19.3,28.7,36.4,25.8l208-35.6c17.2-2.9,28.7-19.3,25.8-36.4l-3-17.4 M671.8,461.3l221.4,93.3"/>
</g>
</svg>
